<svg width="478" height="478" viewBox="0 0 478 478" fill="none" xmlns="http://www.w3.org/2000/svg">
<path d="M207.478 1.25851C155.078 8.65851 109.978 30.5585 72.5778 66.7585C32.0778 105.859 7.27778 156.359 0.877778 212.658C-0.922222 228.558 0.177778 264.158 2.97778 279.758C18.4778 367.258 80.2778 438.658 164.478 466.258C189.578 474.558 210.478 477.758 238.978 477.758C267.478 477.758 288.378 474.558 313.478 466.258C350.278 454.158 379.978 435.758 407.978 407.758C435.978 379.758 454.378 350.058 466.478 313.258C474.778 288.158 477.978 267.258 477.978 238.758C477.978 193.959 467.378 154.459 445.278 117.259C409.378 56.5585 349.578 15.1585 279.978 2.75851C263.878 -0.141488 223.278 -0.941488 207.478 1.25851ZM270.478 21.6585C358.378 34.8585 429.678 98.8585 451.578 184.559C460.278 218.358 460.178 259.858 451.478 293.258C431.178 370.958 371.178 430.958 293.478 451.258C260.078 459.958 218.578 460.058 184.778 451.358C99.2778 429.458 34.7778 357.858 21.9778 270.558C19.2778 252.358 19.2778 225.158 21.9778 207.059C28.8778 159.759 50.0778 117.659 83.9778 83.7585C117.578 50.1585 159.778 28.8585 206.378 21.7585C223.678 19.1585 253.178 19.1585 270.478 21.6585Z" fill="#3365FF"/>
<path d="M328.078 62.8585C340.178 77.0585 346.378 90.8585 350.578 112.259C353.178 125.159 353.178 156.958 350.678 168.758C342.978 204.658 324.278 230.658 293.678 248.058L285.778 252.558L292.878 256.258C312.978 266.858 326.678 287.758 334.878 320.258C335.978 324.658 338.478 337.058 340.478 347.758C345.978 377.958 351.178 402.758 352.078 402.758C354.078 402.758 370.578 389.158 379.978 379.758C409.978 349.958 429.278 312.258 436.678 269.258C438.978 255.358 438.978 221.158 436.678 207.258C425.778 143.658 387.878 90.7585 332.478 61.5585L322.678 56.4585L328.078 62.8585Z" fill="#3365FF"/>
<path d="M98.2778 96.3585C67.4778 127.358 48.5778 164.158 41.2778 207.358C38.7778 222.558 38.7778 253.958 41.2778 269.158C48.5778 312.258 67.8778 349.958 98.6778 380.558C104.978 386.858 110.378 391.758 110.678 391.458C111.278 390.758 111.278 85.7585 110.678 85.0585C110.378 84.7585 104.778 89.8585 98.2778 96.3585Z" fill="#3365FF"/>
<path d="M204.978 87.2585C204.178 87.4585 201.778 87.8585 199.778 88.2585L195.978 88.8585V153.958V219.058L208.778 218.458C223.678 217.858 231.678 215.658 240.578 209.958C248.778 204.658 255.578 196.758 260.078 187.258C266.378 174.158 267.478 168.558 267.478 149.758C267.478 135.558 267.078 132.158 265.078 125.058C259.878 106.658 248.278 94.1585 231.978 89.2585C226.878 87.7585 208.378 86.3585 204.978 87.2585Z" fill="#3365FF"/>
<path d="M195.978 358.558V433.558L200.778 434.558C213.078 437.158 225.678 437.958 245.278 437.458C269.778 436.658 272.378 436.258 271.678 433.358C266.878 410.958 262.278 386.058 259.078 364.758C254.478 335.158 253.878 331.858 250.278 319.758C245.278 302.858 237.678 292.158 227.078 287.058C222.078 284.658 219.978 284.358 208.778 283.958L195.978 283.558V358.558Z" fill="#3365FF"/>
</svg>
